PathFileType	4	(X/Y/Z)	 New Session 102.trc
DataRate	CameraRate	NumFrames	NumMarkers	Units	OrigDataRate	OrigDataStartFrame	OrigNumFrames
100	100	27	14	m	100	189	302
Frame#	Time	C7			T8			IJ			PX			AA			AC			AI			TS			SC			GH			LE			ME			US			RS			
		X1	Y1	Z1	X2	Y2	Z2	X3	Y3	Z3	X4	Y4	Z4	X5	Y5	Z5	X6	Y6	Z6	X7	Y7	Z7	X8	Y8	Z8	X9	Y9	Z9	X10	Y10	Z10	X11	Y11	Z11	X12	Y12	Z12	X13	Y13	Z13	X14	Y14	Z14	
189	1.8900	0.025669	0.104409	0.158011	0.031891	-0.110590	0.230258	0.000485	0.000623	-0.004949	0.001461	-0.141711	-0.072062	0.224138	0.009260	0.133672	0.170173	0.050567	0.065250	0.110147	0.028077	0.195797	0.114400	-0.090441	0.226079	0.025425	0.008995	-0.001036	0.233082	0.022323	0.093218	0.321414	-0.245856	0.002226	0.248143	-0.298017	0.038493	0.399907	-0.488658	-0.102407	0.326563	-0.497068	-0.137370	
190	1.9000	0.025687	0.104414	0.158008	0.031914	-0.110587	0.230256	0.000498	0.000617	-0.004946	0.001491	-0.141716	-0.072031	0.224157	0.009251	0.133693	0.170194	0.050575	0.065269	0.110155	0.028081	0.195803	0.114420	-0.090445	0.226080	0.025445	0.008991	-0.001038	0.233123	0.022327	0.093239	0.321376	-0.245847	0.002245	0.248185	-0.298007	0.038492	0.399957	-0.488638	-0.102406	0.326661	-0.497016	-0.137413	
191	1.9100	0.025702	0.104422	0.158007	0.031931	-0.110585	0.230253	0.000512	0.000609	-0.004943	0.001520	-0.141720	-0.071992	0.224183	0.009239	0.133707	0.170214	0.050575	0.065288	0.110163	0.028082	0.195807	0.114440	-0.090448	0.226081	0.025463	0.008991	-0.001040	0.233168	0.022328	0.093260	0.321368	-0.245845	0.002256	0.248223	-0.298006	0.038490	0.400008	-0.488623	-0.102396	0.326763	-0.496966	-0.137456	
192	1.9200	0.025716	0.104428	0.158013	0.031943	-0.110584	0.230251	0.000527	0.000601	-0.004941	0.001546	-0.141727	-0.071948	0.224206	0.009227	0.133717	0.170234	0.050570	0.065301	0.110176	0.028075	0.195805	0.114461	-0.090450	0.226081	0.025486	0.008989	-0.001044	0.233198	0.022323	0.093276	0.321400	-0.245853	0.002259	0.248256	-0.298016	0.038483	0.400061	-0.488618	-0.102376	0.326864	-0.496923	-0.137495	
193	1.9300	0.025734	0.104429	0.158021	0.031955	-0.110584	0.230246	0.000542	0.000592	-0.004940	0.001567	-0.141739	-0.071907	0.224222	0.009214	0.133725	0.170256	0.050562	0.065306	0.110196	0.028061	0.195797	0.114482	-0.090452	0.226081	0.025518	0.008982	-0.001045	0.233205	0.022305	0.093281	0.321466	-0.245869	0.002256	0.248286	-0.298034	0.038471	0.400117	-0.488623	-0.102352	0.326959	-0.496890	-0.137528	
194	1.9400	0.025761	0.104423	0.158025	0.031968	-0.110586	0.230237	0.000557	0.000582	-0.004940	0.001582	-0.141761	-0.071870	0.224233	0.009200	0.133731	0.170287	0.050547	0.065310	0.110222	0.028044	0.195783	0.114503	-0.090454	0.226081	0.025551	0.008971	-0.001040	0.233197	0.022276	0.093276	0.321542	-0.245886	0.002253	0.248315	-0.298054	0.038457	0.400176	-0.488636	-0.102333	0.327043	-0.496871	-0.137550	
195	1.9500	0.025795	0.104411	0.158022	0.031984	-0.110591	0.230227	0.000573	0.000571	-0.004941	0.001591	-0.141792	-0.071839	0.224245	0.009182	0.133732	0.170323	0.050525	0.065313	0.110248	0.028029	0.195770	0.114523	-0.090455	0.226081	0.025579	0.008959	-0.001033	0.233188	0.022245	0.093268	0.321600	-0.245900	0.002256	0.248351	-0.298073	0.038442	0.400235	-0.488653	-0.102325	0.327113	-0.496869	-0.137557	
196	1.9600	0.025831	0.104399	0.158010	0.032006	-0.110596	0.230220	0.000589	0.000559	-0.004944	0.001598	-0.141828	-0.071816	0.224257	0.009159	0.133730	0.170353	0.050498	0.065312	0.110271	0.028020	0.195763	0.114541	-0.090456	0.226080	0.025602	0.008947	-0.001031	0.233194	0.022219	0.093270	0.321627	-0.245907	0.002270	0.248396	-0.298087	0.038430	0.400292	-0.488666	-0.102328	0.327168	-0.496885	-0.137548	
197	1.9700	0.025866	0.104390	0.157992	0.032031	-0.110599	0.230216	0.000606	0.000547	-0.004949	0.001607	-0.141864	-0.071804	0.224267	0.009132	0.133728	0.170374	0.050470	0.065305	0.110291	0.028016	0.195757	0.114556	-0.090457	0.226079	0.025629	0.008936	-0.001043	0.233217	0.022197	0.093276	0.321623	-0.245911	0.002293	0.248449	-0.298095	0.038421	0.400350	-0.488671	-0.102336	0.327208	-0.496919	-0.137520	
198	1.9800	0.025899	0.104386	0.157971	0.032055	-0.110596	0.230209	0.000623	0.000535	-0.004955	0.001616	-0.141897	-0.071800	0.224279	0.009107	0.133726	0.170392	0.050445	0.065298	0.110312	0.028015	0.195746	0.114570	-0.090458	0.226077	0.025661	0.008923	-0.001066	0.233246	0.022173	0.093276	0.321599	-0.245914	0.002319	0.248501	-0.298102	0.038414	0.400407	-0.488669	-0.102345	0.327236	-0.496970	-0.137474	
199	1.9900	0.025928	0.104387	0.157950	0.032075	-0.110586	0.230199	0.000640	0.000523	-0.004963	0.001623	-0.141926	-0.071795	0.224294	0.009086	0.133719	0.170414	0.050425	0.065295	0.110332	0.028015	0.195727	0.114581	-0.090460	0.226075	0.025691	0.008905	-0.001090	0.233272	0.022151	0.093265	0.321573	-0.245921	0.002342	0.248541	-0.298113	0.038406	0.400461	-0.488663	-0.102350	0.327255	-0.497033	-0.137416	
200	2.0000	0.025951	0.104393	0.157930	0.032087	-0.110571	0.230188	0.000657	0.000512	-0.004971	0.001624	-0.141952	-0.071778	0.224308	0.009067	0.133707	0.170436	0.050408	0.065295	0.110349	0.028018	0.195700	0.114589	-0.090462	0.226072	0.025715	0.008881	-0.001107	0.233296	0.022134	0.093246	0.321561	-0.245933	0.002354	0.248564	-0.298128	0.038397	0.400511	-0.488658	-0.102347	0.327271	-0.497098	-0.137354	
201	2.0100	0.025966	0.104400	0.157911	0.032092	-0.110557	0.230178	0.000674	0.000502	-0.004981	0.001623	-0.141979	-0.071751	0.224314	0.009046	0.133695	0.170455	0.050392	0.065295	0.110359	0.028019	0.195675	0.114595	-0.090464	0.226069	0.025728	0.008856	-0.001121	0.233317	0.022121	0.093227	0.321575	-0.245950	0.002353	0.248575	-0.298147	0.038391	0.400557	-0.488659	-0.102336	0.327290	-0.497157	-0.137300	
202	2.0200	0.025974	0.104402	0.157892	0.032094	-0.110552	0.230170	0.000691	0.000492	-0.004990	0.001626	-0.142008	-0.071719	0.224320	0.009027	0.133681	0.170470	0.050372	0.065292	0.110362	0.028015	0.195656	0.114599	-0.090467	0.226066	0.025734	0.008836	-0.001135	0.233334	0.022105	0.093210	0.321618	-0.245971	0.002340	0.248578	-0.298169	0.038388	0.400601	-0.488670	-0.102320	0.327316	-0.497203	-0.137258	
203	2.0300	0.025981	0.104397	0.157874	0.032096	-0.110555	0.230161	0.000708	0.000485	-0.005000	0.001635	-0.142042	-0.071692	0.224332	0.009013	0.133664	0.170479	0.050348	0.065282	0.110362	0.028005	0.195646	0.114602	-0.090471	0.226062	0.025741	0.008825	-0.001147	0.233352	0.022083	0.093199	0.321683	-0.245994	0.002319	0.248581	-0.298191	0.038389	0.400645	-0.488691	-0.102301	0.327349	-0.497236	-0.137230	
204	2.0400	0.025989	0.104383	0.157859	0.032099	-0.110564	0.230150	0.000725	0.000478	-0.005009	0.001650	-0.142082	-0.071675	0.224352	0.009002	0.133648	0.170487	0.050326	0.065266	0.110363	0.027990	0.195643	0.114604	-0.090476	0.226059	0.025753	0.008821	-0.001156	0.233367	0.022057	0.093190	0.321753	-0.246015	0.002299	0.248584	-0.298210	0.038391	0.400686	-0.488715	-0.102280	0.327386	-0.497259	-0.137211	
205	2.0500	0.026003	0.104366	0.157847	0.032102	-0.110578	0.230136	0.000742	0.000473	-0.005018	0.001677	-0.142121	-0.071664	0.224374	0.008989	0.133641	0.170499	0.050310	0.065251	0.110368	0.027973	0.195640	0.114606	-0.090480	0.226056	0.025773	0.008821	-0.001168	0.233379	0.022035	0.093184	0.321805	-0.246028	0.002291	0.248589	-0.298225	0.038394	0.400722	-0.488735	-0.102257	0.327422	-0.497274	-0.137195	
206	2.0600	0.026024	0.104353	0.157839	0.032103	-0.110590	0.230118	0.000760	0.000470	-0.005026	0.001716	-0.142152	-0.071653	0.224395	0.008977	0.133646	0.170515	0.050301	0.065249	0.110379	0.027959	0.195635	0.114609	-0.090485	0.226052	0.025796	0.008818	-0.001180	0.233389	0.022024	0.093180	0.321823	-0.246031	0.002299	0.248593	-0.298234	0.038396	0.400750	-0.488747	-0.102231	0.327454	-0.497287	-0.137178	
207	2.0700	0.026046	0.104351	0.157834	0.032099	-0.110596	0.230097	0.000777	0.000468	-0.005032	0.001759	-0.142175	-0.071639	0.224414	0.008972	0.133658	0.170534	0.050301	0.065260	0.110394	0.027955	0.195627	0.114612	-0.090490	0.226049	0.025823	0.008811	-0.001190	0.233397	0.022025	0.093180	0.321806	-0.246024	0.002324	0.248595	-0.298237	0.038400	0.400770	-0.488752	-0.102203	0.327479	-0.497301	-0.137160	
208	2.0800	0.026063	0.104359	0.157833	0.032094	-0.110596	0.230075	0.000794	0.000468	-0.005037	0.001797	-0.142197	-0.071620	0.224433	0.008978	0.133675	0.170555	0.050309	0.065276	0.110411	0.027965	0.195620	0.114616	-0.090494	0.226047	0.025855	0.008799	-0.001199	0.233406	0.022036	0.093187	0.321769	-0.246015	0.002359	0.248597	-0.298236	0.038406	0.400780	-0.488756	-0.102177	0.327494	-0.497317	-0.137139	
209	2.0900	0.026075	0.104368	0.157832	0.032093	-0.110594	0.230057	0.000811	0.000469	-0.005041	0.001827	-0.142228	-0.071594	0.224453	0.008992	0.133695	0.170576	0.050317	0.065286	0.110423	0.027980	0.195617	0.114621	-0.090499	0.226045	0.025885	0.008782	-0.001207	0.233427	0.022049	0.093204	0.321734	-0.246012	0.002396	0.248599	-0.298232	0.038412	0.400782	-0.488767	-0.102155	0.327499	-0.497336	-0.137118	
210	2.1000	0.026083	0.104372	0.157828	0.032102	-0.110595	0.230043	0.000828	0.000470	-0.005044	0.001856	-0.142272	-0.071561	0.224474	0.009002	0.133716	0.170597	0.050316	0.065290	0.110431	0.027989	0.195619	0.114625	-0.090503	0.226043	0.025912	0.008754	-0.001212	0.233461	0.022053	0.093230	0.321721	-0.246022	0.002428	0.248602	-0.298230	0.038416	0.400780	-0.488788	-0.102137	0.327495	-0.497358	-0.137097	
211	2.1100	0.026088	0.104364	0.157820	0.032120	-0.110601	0.230033	0.000844	0.000472	-0.005047	0.001893	-0.142318	-0.071527	0.224491	0.008999	0.133735	0.170619	0.050303	0.065295	0.110436	0.027981	0.195622	0.114630	-0.090508	0.226042	0.025940	0.008721	-0.001211	0.233495	0.022042	0.093258	0.321738	-0.246045	0.002451	0.248607	-0.298236	0.038416	0.400775	-0.488819	-0.102123	0.327482	-0.497384	-0.137077	
212	2.1200	0.026094	0.104347	0.157806	0.032142	-0.110612	0.230026	0.000861	0.000473	-0.005049	0.001938	-0.142353	-0.071503	0.224501	0.008979	0.133751	0.170640	0.050283	0.065306	0.110437	0.027959	0.195620	0.114634	-0.090512	0.226041	0.025971	0.008693	-0.001203	0.233517	0.022018	0.093281	0.321783	-0.246079	0.002469	0.248613	-0.298251	0.038416	0.400769	-0.488856	-0.102108	0.327464	-0.497410	-0.137056	
213	2.1300	0.026104	0.104326	0.157787	0.032164	-0.110625	0.230015	0.000877	0.000475	-0.005050	0.001982	-0.142375	-0.071494	0.224505	0.008947	0.133764	0.170661	0.050259	0.065322	0.110437	0.027933	0.195614	0.114637	-0.090517	0.226041	0.026008	0.008678	-0.001196	0.233527	0.021989	0.093294	0.321845	-0.246116	0.002483	0.248616	-0.298275	0.038421	0.400759	-0.488894	-0.102092	0.327440	-0.497437	-0.137035	
214	2.1400	0.026118	0.104310	0.157768	0.032181	-0.110638	0.230002	0.000894	0.000475	-0.005053	0.002018	-0.142391	-0.071497	0.224508	0.008910	0.133773	0.170683	0.050234	0.065335	0.110441	0.027914	0.195607	0.114640	-0.090522	0.226042	0.026045	0.008674	-0.001193	0.233531	0.021960	0.093301	0.321911	-0.246152	0.002501	0.248615	-0.298299	0.038432	0.400744	-0.488929	-0.102072	0.327413	-0.497463	-0.137013	
215	2.1500	0.026136	0.104306	0.157752	0.032190	-0.110644	0.229986	0.000911	0.000475	-0.005055	0.002050	-0.142406	-0.071507	0.224515	0.008880	0.133784	0.170708	0.050212	0.065344	0.110452	0.027905	0.195602	0.114641	-0.090527	0.226043	0.026073	0.008671	-0.001194	0.233539	0.021934	0.093305	0.321977	-0.246180	0.002525	0.248610	-0.298320	0.038448	0.400728	-0.488961	-0.102048	0.327384	-0.497488	-0.136991	
